<?xml version="1.0" standalone="yes"?><svg version="1.1" xmlns="http://www.w3.org/2000/svg" xmlns:xlink="http://www.w3.org/1999/xlink" xmlns:ev="http://www.w3.org/2001/xml-events" width="231" height="231" shape-rendering="crispEdges"><path d="M0 0h7v7h-7zM11 0h1v1h1v2h-2v1h-3v-2h1v-1h1v1h1zM14 0h7v7h-7zM1 1v5h5v-5zM15 1v5h5v-5zM2 2h3v3h-3zM16 2h3v3h-3zM11 4h2v5h-1v-1h-1v-1h-1v-1h-1v-1h1v1h1v1h1v-2h-1zM8 6h1v1h-1zM3 8h2v1h1v-1h2v1h1v1h-2v-1h-1v1h-1v1h1v-1h1v1h-1v1h-1v1h-3v-2h-1v1h-1v-2h2v1h2v-2h-1zM10 8h1v1h1v1h1v-1h1v1h1v2h-1v-1h-1v1h-1v-1h-1v1h1v2h1v-2h1v2h-1v1h-1v1h-1v1h-1v-2h-2v-3h-1v-1h1v1h1v-1h1zM17 8h2v1h-1v1h-1v1h-1v-2h1zM19 10h2v3h-1v1h-2v-1h-1v-1h1v-1h1zM19 11v1h-1v1h1v-1h1v-1zM6 12h1v1h-1zM9 12v2h2v-1h-1v-1zM15 13h1v1h1v1h2v1h-1v1h1v-1h1v-1h1v2h-2v1h2v2h-2v1h-1v-3h-2v-1h-2v1h-3v-1h1v-1h3v-1h-1v-1h1zM0 14h7v7h-7zM1 15v5h5v-5zM2 16h3v3h-3zM8 16h1v2h-1zM16 16v1h1v-1zM10 19h5v1h-2v1h-1v-1h-2zM16 19h1v1h-1zM9 20h1v1h-1z" fill="#000" transform="translate(0,0) scale(11)"/></svg>