<?xml version="1.0" standalone="yes"?><svg version="1.1" xmlns="http://www.w3.org/2000/svg" xmlns:xlink="http://www.w3.org/1999/xlink" xmlns:ev="http://www.w3.org/2001/xml-events" width="231" height="231" shape-rendering="crispEdges"><path d="M0 0h7v7h-7zM8 0h1v3h-1zM14 0h7v7h-7zM1 1v5h5v-5zM11 1h1v1h1v1h-2zM15 1v5h5v-5zM2 2h3v3h-3zM16 2h3v3h-3zM9 3h2v5h-2v1h-1v-4h1zM12 4h1v4h3v2h-4zM9 5v2h1v-2zM2 8h3v1h1v-1h1v1h-1v1h-3v1h-1zM18 8h3v2h-1v2h-3v1h-1v-1h-1v-1h1v-1h2zM10 9h1v1h1v1h-6v-1h4zM18 10v1h1v-1zM1 11h1v1h-1zM3 11h1v1h-1zM5 11h1v1h-1zM12 11h2v1h-1v1h-1zM0 12h1v1h-1zM4 12h1v1h-1zM6 12h3v2h-1v-1h-2zM14 12h1v1h-1zM10 13h1v1h2v-1h1v1h-1v1h-3zM17 13h2v1h1v-1h1v1h-1v1h-1v1h-2v-1h1v-1h-1zM0 14h7v7h-7zM14 14h2v1h-1v1h1v2h-1v-1h-1zM1 15v5h5v-5zM2 16h3v3h-3zM8 16h3v1h1v1h-2v1h-2zM19 16h1v1h-1zM17 17h2v1h-2zM12 18h1v1h1v-1h1v1h1v-1h1v3h-1v-1h-1v1h-1v-1h-1v1h-1zM10 19h1v1h-1zM18 19h1v1h1v1h-2z" fill="#000" transform="translate(0,0) scale(11)"/></svg>