<?xml version="1.0" standalone="yes"?><svg version="1.1" xmlns="http://www.w3.org/2000/svg" xmlns:xlink="http://www.w3.org/1999/xlink" xmlns:ev="http://www.w3.org/2001/xml-events" width="231" height="231" shape-rendering="crispEdges"><path d="M0 0h7v7h-7zM9 0h2v1h-1v1h-2v-1h1zM12 0h1v2h-1zM14 0h7v7h-7zM1 1v5h5v-5zM15 1v5h5v-5zM2 2h3v3h-3zM11 2h1v1h1v2h-1v1h-1v-2h-1v1h-1v-2h2zM16 2h3v3h-3zM8 5h1v3h-1zM10 6h1v1h-1zM12 6h1v1h-1zM4 8h4v1h-4zM10 8h1v1h-1zM14 8h2v1h-2zM19 8h1v3h-1v-1h-2v-1h2zM0 9h1v1h-1zM8 9h2v1h1v-1h3v1h-1v2h-1v1h-1v-1h-1v-1h-1v-1h-1zM1 10h2v2h-1v-1h-1zM4 10h1v3h-1zM6 10h1v1h-1zM11 10v1h1v-1zM7 11h1v2h-2v-1h1zM14 11h2v1h1v1h-2v-1h-1zM0 12h1v1h-1zM9 12h1v1h-1zM13 12h1v2h4v-1h1v-1h1v1h1v1h-1v1h-7zM8 13h1v1h1v-1h1v1h-1v2h1v-2h1v2h-1v1h-1v1h-1v-1h-1zM0 14h7v7h-7zM1 15v5h5v-5zM20 15h1v3h-2v1h-2v1h-1v-2h-3v-1h1v-1h2v1h1v-1h1v1h-1v1h1v-1h2zM2 16h3v3h-3zM10 18h2v1h-1v1h-2v-1h1zM12 19h3v1h-1v1h-2zM15 20h1v1h-1zM20 20h1v1h-1z" fill="#000" transform="translate(0,0) scale(11)"/></svg>